{
  "asset": {
    "version": "2.0",
    "generator": "THREE.GLTFExporter"
  },
  "scenes": [
    {
      "nodes": [
        0
      ]
    }
  ],
  "scene": 0,
  "nodes": [
    {
      "children": [
        5
      ],
      "matrix": [
        0.01,
        0,
        0,
        0,
        0,
        0.01,
        0,
        0,
        0,
        0,
        0.01,
        0,
        0,
        0,
        0,
        1
      ]
    },
    {
      "matrix": [
        1,
        -3.944304526105059e-31,
        1.2246467991473532e-16,
        0,
        -7.888609052210118e-31,
        1,
        7.888609052210118e-31,
        0,
        8.611404818155592e-17,
        -6.21272062461174e-47,
        -1.2861763954019465,
        0,
        137.08604139010225,
        -90.98278696377758,
        -67.81871836141471,
        1
      ],
      "name": "Sphere 5",
      "mesh": 0
    },
    {
      "matrix": [
        -0.9440264528474486,
        8.206728575825127e-17,
        0.3298697566074587,
        0,
        1.1560989737900578e-16,
        1,
        8.206728575825127e-17,
        0,
        0.42427069450549865,
        -1.486947210837186e-16,
        1.214184540287417,
        0,
        223.0860413901023,
        -91.98278696377758,
        -307.80322460408934,
        1
      ],
      "name": "Sphere 4",
      "mesh": 1
    },
    {
      "matrix": [
        2.220446049250313e-16,
        0,
        -1,
        0,
        -6.123233995736744e-17,
        1,
        -1.232595164407831e-32,
        0,
        1,
        6.123233995736744e-17,
        2.220446049250313e-16,
        0,
        1227.7376631548282,
        -5.900664008302335e-12,
        3.914982717408555e-11,
        1
      ],
      "name": "Personal Camera",
      "camera": 0
    },
    {
      "matrix": [
        1,
        0,
        0,
        0,
        0,
        1,
        0,
        0,
        0,
        0,
        1,
        0,
        0,
        1,
        0,
        1
      ],
      "name": "Default Ambient Light"
    },
    {
      "name": "Scene 1",
      "children": [
        1,
        2,
        3,
        4
      ]
    }
  ],
  "bufferViews": [
    {
      "buffer": 0,
      "byteOffset": 0,
      "byteLength": 47616,
      "target": 34962,
      "byteStride": 12
    },
    {
      "buffer": 0,
      "byteOffset": 47616,
      "byteLength": 47616,
      "target": 34962,
      "byteStride": 12
    },
    {
      "buffer": 0,
      "byteOffset": 95232,
      "byteLength": 23808,
      "target": 34963
    },
    {
      "buffer": 0,
      "byteOffset": 119040,
      "byteLength": 47616,
      "target": 34962,
      "byteStride": 12
    },
    {
      "buffer": 0,
      "byteOffset": 166656,
      "byteLength": 47616,
      "target": 34962,
      "byteStride": 12
    },
    {
      "buffer": 0,
      "byteOffset": 214272,
      "byteLength": 23808,
      "target": 34963
    }
  ],
  "buffers": [
    {
      "byteLength": 238080,
      "uri": "data:application/octet-stream;base64,"
    }
  ],
  "accessors": [
    {
      "bufferView": 0,
      "componentType": 5126,
      "count": 3968,
      "max": [
        131.76284790039062,
        151.0059356689453,
        130.2559356689453
      ],
      "min": [
        -107.77995300292969,
        -206.31008911132812,
        -73.84605407714844
      ],
      "type": "VEC3"
    },
    {
      "bufferView": 1,
      "componentType": 5126,
      "count": 3968,
      "max": [
        0.9975745677947998,
        0.9942755699157715,
        0.9992768168449402
      ],
      "min": [
        -0.9935716986656189,
        -0.9937818646430969,
        -0.9997196197509766
      ],
      "type": "VEC3"
    },
    {
      "bufferView": 2,
      "componentType": 5125,
      "count": 5952,
      "max": [
        3967
      ],
      "min": [
        0
      ],
      "type": "SCALAR"
    },
    {
      "bufferView": 3,
      "componentType": 5126,
      "count": 3968,
      "max": [
        131.76284790039062,
        151.17176818847656,
        130.2559356689453
      ],
      "min": [
        -107.77995300292969,
        -206.6607666015625,
        -76.81656646728516
      ],
      "type": "VEC3"
    },
    {
      "bufferView": 4,
      "componentType": 5126,
      "count": 3968,
      "max": [
        0.9975745677947998,
        0.9975346326828003,
        0.9992768168449402
      ],
      "min": [
        -0.9936922788619995,
        -0.9975801110267639,
        -0.9997953772544861
      ],
      "type": "VEC3"
    },
    {
      "bufferView": 5,
      "componentType": 5125,
      "count": 5952,
      "max": [
        3967
      ],
      "min": [
        0
      ],
      "type": "SCALAR"
    }
  ],
  "meshes": [
    {
      "primitives": [
        {
          "mode": 4,
          "attributes": {
            "POSITION": 0,
            "NORMAL": 1
          },
          "extras": {
            "type": "SubdivGeometry",
            "parameters": {
              "width": 247.39308166503906,
              "height": 358.3570251464844,
              "depth": 211.99119567871094
            }
          },
          "indices": 2
        }
      ]
    },
    {
      "primitives": [
        {
          "mode": 4,
          "attributes": {
            "POSITION": 3,
            "NORMAL": 4
          },
          "extras": {
            "type": "SubdivGeometry",
            "parameters": {
              "width": 247.39308166503906,
              "height": 358.6910858154297,
              "depth": 213.31103515625
            }
          },
          "indices": 5
        }
      ]
    }
  ],
  "cameras": [
    {
      "type": "orthographic",
      "orthographic": {
        "xmag": 8.87654330460939,
        "ymag": 4.984614912408593,
        "zfar": 100000,
        "znear": 0
      },
      "name": "Camera"
    }
  ]
}